<svg width="18" height="14" viewBox="0 0 18 14" fill="none" xmlns="http://www.w3.org/2000/svg">
<path fill-rule="evenodd" clip-rule="evenodd" d="M17.2439 1.66381C16.6136 1.94861 15.9232 2.12848 15.2179 2.21842C15.9532 1.78373 16.5085 1.09422 16.7787 0.269807C16.0883 0.674518 15.3379 0.974304 14.5275 1.1242C13.8822 0.434689 12.9517 0 11.9462 0C9.98015 0 8.40434 1.58886 8.40434 3.53747C8.40434 3.80728 8.43435 4.09208 8.49438 4.3469C5.55287 4.197 2.94152 2.78801 1.20062 0.64454C0.900465 1.16916 0.720372 1.76874 0.720372 2.42827C0.720372 3.65739 1.3507 4.73662 2.29619 5.36617C1.71088 5.35118 1.1706 5.1863 0.690356 4.91649V4.96146C0.690356 6.67024 1.90598 8.09422 3.52682 8.42398C3.22667 8.49893 2.9115 8.5439 2.59634 8.5439C2.37122 8.5439 2.14611 8.52891 1.936 8.48394C2.38623 9.89293 3.69191 10.9122 5.2377 10.9422C4.02208 11.9015 2.50629 12.4561 0.840434 12.4561C0.555287 12.4561 0.270139 12.4411 0 12.4111C1.56081 13.4154 3.42177 14 5.4178 14C11.9312 14 15.488 8.61884 15.488 3.94218C15.488 3.79229 15.488 3.6424 15.473 3.49251C16.1784 2.98287 16.7787 2.36831 17.2439 1.66381Z" fill="#1DA1F2"/>
</svg>
