<svg width="23" height="18" viewBox="0 0 23 18" fill="none" xmlns="http://www.w3.org/2000/svg">
<path fill-rule="evenodd" clip-rule="evenodd" d="M22.5 2.13919C21.6958 2.50535 20.8151 2.73662 19.9151 2.85225C20.8534 2.29336 21.5618 1.40685 21.9064 0.346895C21.0257 0.867238 20.0683 1.25268 19.0344 1.4454C18.2111 0.558886 17.0239 0 15.7411 0C13.2328 0 11.2224 2.04283 11.2224 4.54818C11.2224 4.89507 11.2607 5.26124 11.3372 5.58887C7.58442 5.39615 4.25283 3.58458 2.03177 0.828694C1.64883 1.50321 1.41906 2.27409 1.41906 3.12206C1.41906 4.70236 2.22324 6.08994 3.4295 6.89936C2.68277 6.88009 1.99347 6.66809 1.38077 6.3212V6.37901C1.38077 8.57602 2.93168 10.4069 4.99956 10.8308C4.61662 10.9272 4.21453 10.985 3.81245 10.985C3.52524 10.985 3.23803 10.9657 2.96997 10.9079C3.54439 12.7195 5.21018 14.03 7.18233 14.0685C5.63142 15.3019 3.69756 16.015 1.57224 16.015C1.20844 16.015 0.844648 15.9957 0.5 15.9572C2.4913 17.2484 4.86554 18 7.4121 18C15.7219 18 20.2598 11.0814 20.2598 5.06852C20.2598 4.8758 20.2598 4.68308 20.2406 4.49036C21.1406 3.83512 21.9064 3.04497 22.5 2.13919Z" fill="white"/>
</svg>
