<svg width="22" height="18" viewBox="0 0 22 18" fill="none" xmlns="http://www.w3.org/2000/svg">
<path fill-rule="evenodd" clip-rule="evenodd" d="M22 2.13919C21.1958 2.50535 20.3151 2.73662 19.4151 2.85225C20.3534 2.29336 21.0618 1.40685 21.4064 0.346895C20.5257 0.867238 19.5683 1.25268 18.5344 1.4454C17.7111 0.558886 16.5239 0 15.2411 0C12.7328 0 10.7224 2.04283 10.7224 4.54818C10.7224 4.89507 10.7607 5.26124 10.8372 5.58887C7.08442 5.39615 3.75283 3.58458 1.53177 0.828694C1.14883 1.50321 0.91906 2.27409 0.91906 3.12206C0.91906 4.70236 1.72324 6.08994 2.9295 6.89936C2.18277 6.88009 1.49347 6.66809 0.880766 6.3212V6.37901C0.880766 8.57602 2.43168 10.4069 4.49956 10.8308C4.11662 10.9272 3.71453 10.985 3.31245 10.985C3.02524 10.985 2.73803 10.9657 2.46997 10.9079C3.04439 12.7195 4.71018 14.03 6.68233 14.0685C5.13142 15.3019 3.19756 16.015 1.07224 16.015C0.708442 16.015 0.344648 15.9957 0 15.9572C1.9913 17.2484 4.36554 18 6.9121 18C15.2219 18 19.7598 11.0814 19.7598 5.06852C19.7598 4.8758 19.7598 4.68308 19.7406 4.49036C20.6406 3.83512 21.4064 3.04497 22 2.13919Z" fill="#BDBDBD"/>
</svg>
