<svg width="15" height="16" viewBox="0 0 15 16" fill="none" xmlns="http://www.w3.org/2000/svg">
<path d="M11.9043 11.06C11.3343 11.06 10.8243 11.285 10.4343 11.6375L5.0868 8.525C5.1243 8.3525 5.1543 8.18 5.1543 8C5.1543 7.82 5.1243 7.6475 5.0868 7.475L10.3743 4.3925C10.7793 4.7675 11.3118 5 11.9043 5C13.1493 5 14.1543 3.995 14.1543 2.75C14.1543 1.505 13.1493 0.5 11.9043 0.5C10.6593 0.5 9.6543 1.505 9.6543 2.75C9.6543 2.93 9.6843 3.1025 9.7218 3.275L4.4343 6.3575C4.0293 5.9825 3.4968 5.75 2.9043 5.75C1.6593 5.75 0.654297 6.755 0.654297 8C0.654297 9.245 1.6593 10.25 2.9043 10.25C3.4968 10.25 4.0293 10.0175 4.4343 9.6425L9.7743 12.7625C9.7368 12.92 9.7143 13.085 9.7143 13.25C9.7143 14.4575 10.6968 15.44 11.9043 15.44C13.1118 15.44 14.0943 14.4575 14.0943 13.25C14.0943 12.0425 13.1118 11.06 11.9043 11.06ZM11.9043 2C12.3168 2 12.6543 2.3375 12.6543 2.75C12.6543 3.1625 12.3168 3.5 11.9043 3.5C11.4918 3.5 11.1543 3.1625 11.1543 2.75C11.1543 2.3375 11.4918 2 11.9043 2ZM2.9043 8.75C2.4918 8.75 2.1543 8.4125 2.1543 8C2.1543 7.5875 2.4918 7.25 2.9043 7.25C3.3168 7.25 3.6543 7.5875 3.6543 8C3.6543 8.4125 3.3168 8.75 2.9043 8.75ZM11.9043 14.015C11.4918 14.015 11.1543 13.6775 11.1543 13.265C11.1543 12.8525 11.4918 12.515 11.9043 12.515C12.3168 12.515 12.6543 12.8525 12.6543 13.265C12.6543 13.6775 12.3168 14.015 11.9043 14.015Z" fill="#909090"/>
</svg>
