<svg width="21" height="15" viewBox="0 0 21 15" fill="none" xmlns="http://www.w3.org/2000/svg">
<path fill-rule="evenodd" clip-rule="evenodd" d="M18.7043 0.428735C19.6076 0.665119 20.3199 1.36037 20.5609 2.24333C21 3.84471 21 7.18421 21 7.18421C21 7.18421 21 10.5237 20.5609 12.1251C20.3199 13.0081 19.6076 13.7033 18.7043 13.9397C17.0673 14.3684 10.5 14.3684 10.5 14.3684C10.5 14.3684 3.93273 14.3684 2.29568 13.9397C1.39244 13.7033 0.680114 13.0081 0.439091 12.1251C0 10.5237 0 7.18421 0 7.18421C0 7.18421 0 3.84471 0.439091 2.24333C0.680114 1.36037 1.39244 0.665119 2.29568 0.428735C3.93273 0 10.5 0 10.5 0C10.5 0 17.0673 0 18.7043 0.428735ZM13.8409 7.18418L8.35228 10.2166V4.15175L13.8409 7.18418Z" fill="#BDBDBD"/>
</svg>
