<svg width="28" height="28" viewBox="0 0 28 28" fill="none" xmlns="http://www.w3.org/2000/svg">
<path fill-rule="evenodd" clip-rule="evenodd" d="M8.07159 12.1642C8.29213 12.6648 8.4024 13.2035 8.4024 13.7796C8.4024 14.2862 8.31576 14.7635 8.14248 15.2121C7.96986 15.6607 7.73094 16.0645 7.42705 16.4243L8.15495 17.1653C8.4175 17.4323 8.41881 17.8655 8.15758 18.1345C7.89306 18.4069 7.46118 18.4069 7.19667 18.1352L6.38868 17.3061C6.06575 17.4997 5.72051 17.6479 5.3536 17.75C4.9867 17.8522 4.60141 17.9036 4.19841 17.9036C3.61621 17.9036 3.07078 17.7961 2.56144 17.5818C2.05211 17.3669 1.60775 17.0732 1.22968 16.7C0.851621 16.3269 0.55232 15.8896 0.331783 15.389C0.111245 14.8884 0.000976562 14.3517 0.000976562 13.7796C0.000976562 13.2035 0.111245 12.6648 0.331783 12.1642C0.551664 11.6635 0.851621 11.2276 1.22968 10.8565C1.60775 10.4853 2.05145 10.1936 2.56144 9.9807C3.07078 9.76776 3.61687 9.66162 4.19841 9.66162C4.77666 9.66162 5.32144 9.76843 5.83275 9.9807C6.34405 10.1936 6.79038 10.4853 7.17041 10.8565C7.55044 11.2276 7.85106 11.6635 8.07159 12.1642ZM6.17209 15.8296C6.42347 15.5726 6.62104 15.2688 6.76544 14.9191C6.90984 14.5693 6.98204 14.1915 6.98204 13.7849C6.98204 13.3791 6.90984 12.9999 6.76544 12.6481C6.62104 12.2964 6.42282 11.9913 6.17209 11.7343C5.92136 11.4773 5.62665 11.275 5.28797 11.1282C4.94928 10.9813 4.58632 10.9079 4.19841 10.9079C3.81378 10.9079 3.45409 10.9813 3.11738 11.1282C2.78067 11.275 2.48662 11.4773 2.23589 11.7343C1.98516 11.992 1.78628 12.2964 1.63991 12.6481C1.49354 12.9999 1.42069 13.3791 1.42069 13.7849C1.42069 14.1908 1.49354 14.5693 1.63991 14.9191C1.78628 15.2688 1.98516 15.5726 2.23589 15.8296C2.48727 16.0866 2.78067 16.2888 3.11738 16.4357C3.45409 16.5825 3.81444 16.656 4.19841 16.656C4.58632 16.656 4.94928 16.5825 5.28797 16.4357C5.62665 16.2888 5.92136 16.0866 6.17209 15.8296ZM18.6776 9.88057H17.3538V11.6408H16.4624V12.9025H17.3538V15.4437C17.3538 15.9404 17.4155 16.3469 17.5395 16.6633C17.6636 16.9797 17.8316 17.2287 18.0443 17.4109C18.2569 17.5932 18.507 17.7187 18.7945 17.7861C19.082 17.8542 19.2776 17.8882 19.6044 17.8882H20.5995V16.6867H19.7403C19.5946 16.6867 19.4574 16.668 19.3301 16.6293C19.2021 16.5912 19.0885 16.5251 18.9907 16.431C18.8923 16.3369 18.8142 16.2087 18.7577 16.0465C18.7006 15.8843 18.6717 15.6794 18.6717 15.4311V12.9025H20.6152V11.6408H18.6776V9.88057ZM10.9675 11.9092C11.4126 11.9092 11.7735 11.5422 11.7735 11.0895C11.7735 10.6367 11.4126 10.2697 10.9675 10.2697C10.5223 10.2697 10.1615 10.6367 10.1615 11.0895C10.1615 11.5422 10.5223 11.9092 10.9675 11.9092ZM26.8599 11.9993L26.7831 12.6288C26.6735 12.5213 26.5488 12.4178 26.4083 12.3197C26.2679 12.2216 26.1136 12.1362 25.9456 12.0634C25.7776 11.9906 25.599 11.9332 25.4094 11.8905C25.2197 11.8478 25.0169 11.8264 24.8016 11.8264C24.3487 11.8264 23.9371 11.9065 23.567 12.0661C23.1961 12.2256 22.8791 12.4432 22.6146 12.7176C22.3501 12.9926 22.1453 13.3143 22.0015 13.6835C21.8571 14.0526 21.7856 14.4471 21.7856 14.8663C21.7856 15.2862 21.8584 15.6801 22.0048 16.0499C22.1505 16.419 22.3553 16.7414 22.6179 17.0158C22.8811 17.2908 23.1974 17.5064 23.5676 17.6646C23.9378 17.8222 24.348 17.9016 24.797 17.9016C25.0083 17.9016 25.2105 17.8802 25.4021 17.8375C25.5938 17.7948 25.7723 17.7374 25.9384 17.6646C26.1044 17.5925 26.2587 17.5077 26.4011 17.411C26.5436 17.3142 26.6709 17.2107 26.7844 17.0992L26.8612 17.7287H28V11.9993H26.8599ZM26.5862 15.6213C26.491 15.8496 26.3624 16.0465 26.2003 16.2114C26.0375 16.377 25.8472 16.5045 25.6279 16.5959C25.4087 16.6867 25.175 16.7321 24.9269 16.7321C24.6749 16.7321 24.4399 16.6867 24.2207 16.5959C24.0015 16.5051 23.8098 16.377 23.6457 16.2114C23.4816 16.0465 23.3517 15.8489 23.2571 15.6186C23.162 15.3883 23.1147 15.136 23.1147 14.8617C23.1147 14.5866 23.1613 14.3363 23.2545 14.11C23.3477 13.8837 23.4751 13.6882 23.6378 13.5226C23.8 13.3577 23.991 13.2296 24.2102 13.1381C24.4294 13.0473 24.6644 13.0019 24.9164 13.0019C25.1685 13.0019 25.4035 13.0487 25.6227 13.1414C25.8419 13.2342 26.0336 13.3624 26.1976 13.5259C26.3617 13.6895 26.4917 13.8851 26.5862 14.1134C26.6814 14.3417 26.7286 14.5913 26.7286 14.8623C26.7286 15.14 26.6814 15.393 26.5862 15.6213ZM10.3183 12.8264H11.6166V17.7354H10.3183V12.8264ZM14.8492 12.8264H13.5509V17.7354H14.8492V12.8264ZM14.9838 10.9C15.0861 11.3406 14.8178 11.7821 14.3846 11.8862C13.9514 11.9902 13.5172 11.7174 13.415 11.2768C13.3127 10.8362 13.5809 10.3947 14.0141 10.2907C14.4474 10.1866 14.8815 10.4595 14.9838 10.9Z" fill="#BDBDBD"/>
</svg>
